<svg width="22" height="22" viewBox="0 0 22 22" fill="none" xmlns="http://www.w3.org/2000/svg">
<path d="M5.75 19.412V17.75C5.75 17.2196 5.96071 16.7109 6.33579 16.3358C6.71086 15.9607 7.21957 15.75 7.75 15.75H13.75C14.2804 15.75 14.7891 15.9607 15.1642 16.3358C15.5393 16.7109 15.75 17.2196 15.75 17.75V19.412M20.75 10.75C20.75 16.2728 16.2728 20.75 10.75 20.75C5.22715 20.75 0.75 16.2728 0.75 10.75C0.75 5.22715 5.22715 0.75 10.75 0.75C16.2728 0.75 20.75 5.22715 20.75 10.75ZM13.75 8.75C13.75 10.4069 12.4069 11.75 10.75 11.75C9.09315 11.75 7.75 10.4069 7.75 8.75C7.75 7.09315 9.09315 5.75 10.75 5.75C12.4069 5.75 13.75 7.09315 13.75 8.75Z" stroke="black" stroke-width="1.5" stroke-linecap="round" stroke-linejoin="round"/>
</svg>
