<svg width="20" height="22" viewBox="0 0 20 22" fill="none" xmlns="http://www.w3.org/2000/svg">
<path d="M12.75 0.750007H8.75C8.21957 0.750007 7.71086 0.960721 7.33579 1.33579C6.96071 1.71087 6.75 2.21957 6.75 2.75001V13.75C6.75 14.2804 6.96071 14.7891 7.33579 15.1642C7.71086 15.5393 8.21957 15.75 8.75 15.75H16.75C17.2804 15.75 17.7891 15.5393 18.1642 15.1642C18.5393 14.7891 18.75 14.2804 18.75 13.75V6.75001M12.75 0.750007C13.0669 0.74923 13.3808 0.811217 13.6736 0.932391C13.9664 1.05357 14.2323 1.23153 14.456 1.45601L18.044 5.04401C18.2685 5.26768 18.4464 5.53359 18.5676 5.8264C18.6888 6.11921 18.7508 6.43312 18.75 6.75001M12.75 0.750007V5.75001C12.75 6.01522 12.8554 6.26958 13.0429 6.45711C13.2304 6.64465 13.4848 6.75001 13.75 6.75001H18.75M2.75 5.75001C2.21957 5.75001 1.71086 5.96072 1.33579 6.33579C0.960714 6.71087 0.75 7.21957 0.75 7.75001V18.75C0.75 19.2804 0.960714 19.7891 1.33579 20.1642C1.71086 20.5393 2.21957 20.75 2.75 20.75H10.75C11.1011 20.75 11.4459 20.6576 11.75 20.482C12.054 20.3065 12.3065 20.054 12.482 19.75" stroke="black" stroke-width="1.5" stroke-linecap="round" stroke-linejoin="round"/>
</svg>
