<svg width="130" height="126" viewBox="0 0 130 126" fill="none" xmlns="http://www.w3.org/2000/svg">
<path d="M44.2644 9.81719C46.4994 12.2602 46.0694 13.6768 47.0624 16.4167C47.5788 17.8426 48.9925 19.2871 50.1173 20.2577C53.2149 22.9299 56.114 25.5168 59.6801 27.6216C62.0269 29.0062 67.3486 32.8951 67.8239 33.3238C67.9783 33.4637 68.2192 33.8537 68.331 33.9044C68.9953 34.2079 70.3064 34.1348 71.0425 34.2398C74.0269 34.6659 76.7131 36.2622 77.2269 39.4562C77.235 39.5015 77.1924 40.3043 77.1843 40.3615C77.0232 41.6237 76.339 43.8657 75.4179 44.7351C72.8023 47.2035 68.604 46.9824 65.8312 44.8908C65.2175 44.1666 64.7983 44.2491 64.0462 44.0668C63.6748 43.9762 63.2356 43.666 62.9786 43.61C62.313 43.4637 61.0963 43.8031 60.311 43.8164C59.7706 43.8258 59.2048 43.7019 58.6604 43.7605C55.9384 44.0561 53.0271 45.2251 50.3582 45.7629C49.4544 45.9454 47.6122 45.9454 46.8986 46.2222C46.8016 46.2595 45.3453 47.3632 45.2494 47.475C44.8767 47.9104 44.701 48.877 44.6358 49.0367C43.5043 51.7581 41.5316 52.1256 40.2576 52.6634C39.8983 52.8153 39.0463 52.714 38.6311 52.6461C37.4371 52.4517 35.3912 51.7341 34.5818 50.8167C33.7725 49.8995 32.0301 46.7428 31.8438 45.5711C31.7305 44.8615 31.9569 43.9336 31.8862 43.5022C31.8624 43.3544 31.0809 41.834 30.9559 41.6689C30.4408 40.9899 28.8327 39.9874 28.1259 39.347C26.4074 37.7906 24.6503 36.3035 22.9012 34.7737C21.8803 33.8817 20.9392 32.8086 19.8903 31.9792C17.4809 30.074 14.6043 28.7945 12.1271 26.896C11.9487 26.7601 11.845 26.5285 11.7212 26.4314C10.9012 25.7936 9.46354 24.7191 8.3987 24.6859C8.04597 24.6752 7.10615 25.0294 6.46855 25.0161C3.31512 24.9495 0.37867 24.0602 0.0538864 20.4655C-0.388056 15.586 1.99065 11.323 7.46284 12.7647C9.20008 13.2228 10.9744 13.9963 11.636 15.8523C11.7424 16.1519 11.4842 16.1731 11.9808 16.1545C12.8167 16.1238 13.7618 15.6898 14.6124 15.5207C18.828 14.678 23.0849 14.8989 27.3697 14.7073C28.6902 14.6487 29.5462 14.3984 30.7854 14.1308C31.9914 13.8712 33.1908 13.6035 34.3915 13.328C34.5339 12.9672 34.6684 12.597 34.8639 12.2589C35.4696 11.215 37.5489 9.26059 38.7056 8.91452C39.5083 8.67481 40.8594 8.2221 41.7152 8.4085C42.8028 8.64692 43.5256 9.00093 44.2684 9.81184L44.2644 9.81719ZM34.2105 16.968C33.2028 17.0638 32.2085 16.7229 31.2075 16.8109C28.6744 17.0318 25.674 17.3952 23.1595 17.8267C21.3252 18.1408 19.6267 18.6934 17.7804 18.9824C16.2004 19.2299 13.1668 19.0276 12.4959 20.741C12.187 21.528 12.8805 21.9486 13.3504 22.553C14.5032 24.0348 15.7079 24.9349 17.0657 26.205C18.072 27.1462 18.9585 28.2061 20.0434 29.0661C22.8054 31.2563 26.0055 33.1747 28.7941 35.3209C30.2423 36.4353 31.2806 37.6055 32.5265 38.8304C33.5089 39.7956 34.3116 40.2882 35.7225 39.6919C37.7206 38.8478 37.887 38.4323 40.2857 38.5148C42.8228 38.6041 43.9982 39.3071 45.2947 41.4839C46.2504 41.5797 47.3606 42.3133 48.3057 42.1162C48.4414 42.0884 52.0261 41.7582 53.7818 41.7102C54.2305 41.6982 54.747 41.5185 55.1582 41.4906C56.0581 41.4306 57.1084 41.589 57.9683 41.4705C58.8827 41.3441 59.9889 40.8048 60.8342 40.5492C62.2877 40.1086 63.4245 40.2124 64.4428 38.8025C64.8887 38.1861 65.0858 37.2741 64.9007 36.5351C64.8928 36.5019 64.6998 35.9467 64.6851 35.9161C64.6266 35.7989 63.7986 35.1865 63.6841 35.068C63.4924 34.8682 63.0664 34.1907 62.8841 34.0534C62.6379 33.8684 60.91 32.2748 60.3789 31.6224C59.9889 31.1444 59.0611 30.6452 58.5392 30.1965C57.6488 29.431 56.9207 28.4697 56.0674 27.6602C53.3479 25.0799 49.6555 22.6742 46.3435 20.9101C45.4305 20.4242 44.5372 19.7918 43.4218 19.9543C42.6125 20.0714 41.6621 20.6452 40.8554 20.7237C39.9156 20.8156 37.9575 20.343 37.075 19.9476C35.8105 19.3818 34.5964 18.3446 34.2118 16.968H34.2105Z" fill="#141413"/>
<path d="M53.3505 73.3849C55.0304 74.6177 54.9411 75.406 55.6866 77.1075C56.0927 78.0355 56.8713 78.1632 57.6115 78.6665C59.8157 80.1643 61.1829 81.0497 63.6813 82.104C66.6445 83.3542 69.931 84.6603 72.9872 85.6296C73.0484 85.6495 74.0134 85.6403 74.1492 85.6016C75.1956 85.3114 76.0887 84.245 77.0577 83.7204C80.315 81.959 83.2262 83.8335 84.9779 86.6428C87.4671 90.6369 84.725 94.2037 80.7929 95.4391C78.2371 96.2433 76.8461 95.772 74.8854 94.0147C73.5011 92.7737 73.3347 91.224 72.4202 89.7662C72.3164 89.601 71.4045 88.4282 71.3006 88.3455C70.8322 87.9755 68.9007 87.3497 68.2404 87.0514C66.6031 86.3139 64.9685 85.4166 63.2474 84.86C60.8501 84.0839 58.3328 83.6419 55.9183 82.9002C55.0889 82.646 54.8867 82.2066 53.8737 82.6512C53.7178 82.7192 52.8393 83.6006 52.4866 83.8202C50.824 84.86 48.7128 85.0464 46.8719 84.3994C45.9801 84.0852 45.9135 83.6884 44.8154 84.0599C44.0554 84.3168 42.1159 86.7932 41.1828 87.4683C40.1484 88.2165 39.1541 88.9487 38.1451 89.7289C36.9112 90.6835 35.5069 92.5207 34.4712 93.7483C33.5661 94.8227 33.156 95.6788 31.9886 96.5802C31.8875 96.6586 31.3778 96.8718 31.3324 96.9596C31.2499 97.118 31.4483 97.367 31.4656 97.56C31.7558 100.845 31.2992 103.672 27.8356 104.748C25.9481 105.334 24.1909 105.703 22.3035 104.765C19.4961 103.373 18.2914 100.408 18.9491 97.383C18.993 97.1792 19.2525 96.8077 19.2365 96.6507C19.2286 96.5722 18.8638 95.8106 18.7959 95.7174C18.5764 95.4152 18.0519 95.153 17.7564 94.8693C16.822 93.9733 16.3294 92.7538 15.5387 91.8618C14.2009 90.352 11.2898 88.3123 9.21986 88.3749C8.71272 88.3909 8.13104 88.7251 7.54937 88.7436C3.65714 88.8661 -0.517261 86.8971 0.0524563 82.4037C0.757952 76.8359 4.16961 75.5112 9.25843 77.021C13.5434 78.2911 13.0469 80.637 13.0003 84.3528C12.9564 87.861 17.4103 90.4039 20.0193 92.0255C20.7194 92.4609 21.2599 93.1506 22.205 93.0227C22.6535 92.9614 23.1647 92.5528 23.5334 92.4622C24.6197 92.1946 26.0199 92.6512 27.0262 93.0733C27.2579 93.1705 28.4253 93.8283 28.5065 93.8163C28.7008 93.7869 29.0629 93.4049 29.3038 93.2997C29.4769 93.2237 30.3021 92.393 30.4447 92.2092C31.395 90.9791 33.7565 89.7289 35.0849 88.7742C35.572 88.4241 36.673 87.7252 37.0243 87.3391C37.4223 86.9025 37.6965 86.1928 38.1651 85.7228C38.8067 85.0785 39.2646 84.5752 39.8822 83.9188C40.4999 83.2625 42.1265 82.1441 42.458 81.3413C43.0955 79.7995 42.3421 78.2897 42.8054 76.6814C44.191 71.8712 49.4716 70.5385 53.3505 73.3862V73.3849Z" fill="#141413"/>
<path d="M115.306 15.3358C115.989 16.0919 117.247 17.4366 118.058 17.9919C118.496 18.2914 119.09 18.5044 119.484 18.8159C120.083 19.2886 120.338 19.933 121.213 20.1353C123.378 20.6345 124.941 20.548 126.625 22.1697C127.532 23.043 128.26 25.2132 128.116 26.4953C127.855 28.8146 125.849 30.2537 125.025 32.187C124.515 33.3825 124.336 36.5139 124.281 37.9025C124.236 39.0489 124.393 41.4347 125.149 42.308C126.405 43.7606 127.911 44.0895 128.984 45.8961C129.6 46.9333 130.106 48.1235 129.981 49.3563C129.723 51.8807 128.458 53.0482 126.299 54.1479C125.669 54.4689 124.527 54.9122 123.826 54.8323C123.541 54.8003 121.269 53.9296 120.976 53.7606C119.988 53.1894 118.537 51.5265 118.215 50.4254C117.864 49.2205 118.411 47.037 118.907 45.8841C119.59 44.2984 121.451 43.2453 121.904 41.6224C122.066 41.0392 121.987 39.5188 121.937 38.8465C121.869 37.9425 121.512 34.1986 121.255 33.5796C121.126 33.2694 120.433 32.143 120.177 31.9127C119.921 31.6824 119.534 31.5759 119.247 31.4294C116.797 30.1832 115.686 28.5616 116.245 25.7284C116.49 24.489 117.15 24.0056 117.012 22.6676C116.985 22.412 116.792 21.5226 116.69 21.3203C116.399 20.7491 114.841 18.6681 114.373 18.1196C113.53 17.1304 111.895 15.5954 110.893 14.7779C110.286 14.2827 109.291 13.6022 108.484 13.553C108.035 13.5264 106.983 13.7301 106.303 13.734C103.691 13.746 102.242 13.1962 100.363 11.3722C97.2711 8.36732 98.4679 3.04316 101.975 0.858371C103.216 0.0861728 103.224 0.305849 104.503 0.19268C105.478 0.106142 106.526 -0.162793 107.53 0.140763C108.732 0.505556 109.399 1.2072 110.311 1.93279C110.922 2.41873 111.638 2.7436 112.053 3.45588C112.889 4.88976 113.261 7.07452 112.852 8.68824C112.684 9.35119 112.214 9.87441 112.1 10.5161C112.378 10.9435 112.518 11.7489 112.736 12.1365C112.976 12.5612 114.882 14.8685 115.305 15.3371L115.306 15.3358Z" fill="#141413"/>
<path d="M124.834 90.8395C125.445 91.5678 125.395 92.015 125.606 92.8619C125.794 93.6088 126.043 94.056 125.994 94.9029C125.879 96.8773 124.663 98.5628 123.302 99.8156C123.139 99.966 122.669 100.065 122.626 100.119C122.594 100.162 122.432 101.043 122.417 101.178C122.271 102.552 122.782 104.109 122.955 105.462C123.189 107.287 123.246 109.175 123.574 111.006C123.694 111.681 124.15 113.414 124.42 114.007C125.089 115.474 127.369 115.851 128.178 116.817C128.834 117.601 129.676 120.188 129.576 121.185C129.419 122.766 128.145 124.511 126.863 125.405C126.217 125.855 125.782 125.843 125.047 125.948C124.46 126.03 123.182 126.006 122.514 125.936C120.954 125.773 118.524 123.878 118.263 122.271C117.962 120.413 118.321 118.302 119.636 116.908C119.909 116.619 120.794 116.137 120.921 115.98C120.974 115.912 121.304 114.445 121.304 114.297C121.307 111.9 119.82 108.656 119.293 106.289C119.055 105.22 119.174 103.593 118.578 102.721C118.042 101.934 117.297 102.356 116.692 102.789C116.13 103.189 115.947 103.594 115.542 104.069C115.027 104.674 114.385 104.905 113.801 105.415C110.806 108.031 108.893 112.546 106.4 115.684C105.853 116.374 105.657 116.295 105.431 117.291C105.159 118.481 105.363 119.519 105.059 120.763C105.037 120.859 104.544 123.346 103.156 123.944C101.676 124.58 100.311 124.494 98.7869 123.896C98.3304 123.716 97.5904 123.176 97.2443 122.899C96.399 122.221 96.2818 119.966 96.5187 118.975C97.0605 116.712 98.964 115.53 101.168 115.273C101.32 115.255 101.471 115.354 101.654 115.335C103.282 115.17 105.061 112.458 106.1 111.283C107.576 109.612 108.346 108.844 109.589 106.933C110.243 105.929 111.154 104.92 111.712 103.903C112.384 102.675 112.664 101.452 113.468 100.215C113.934 99.4961 114.189 99.6797 114.119 98.6187C114.059 97.7146 113.452 96.9132 113.407 96.2728C113.391 96.0518 113.321 95.5616 113.274 95.3086C113.198 94.6938 113.263 94.5766 113.295 93.9988C113.605 88.3364 121.393 86.7441 124.836 90.8408L124.834 90.8395Z" fill="#141413"/>
<path d="M90.8705 18.6713C92.293 19.9905 93.9203 21.0517 95.1471 22.5985C97.1378 25.1073 98.8498 28.017 100.44 30.7692C102.091 33.626 102.921 36.1373 103.487 39.4057C103.952 42.0917 103.982 44.9154 104.922 47.4916C105.387 48.7685 106.199 51.1846 106.844 52.2406C106.938 52.3941 107.339 52.8281 107.553 53.1535C109.946 56.8003 112.676 58.5137 113.517 63.3435C114.12 66.8075 112.943 69.0768 111.427 72.054C110.256 74.355 109.087 74.8433 107.509 76.5726C106.981 77.1509 105.45 79.4518 105.219 80.124C104.417 82.449 105.108 85.8098 105.1 88.2948C105.084 93.6696 103.134 98.8141 98.5154 101.692C96.7373 102.8 92.9368 103.858 90.8546 104.268C90.15 104.407 89.1336 104.381 88.4262 104.506C87.8168 104.615 85.7903 105.644 85.3289 106.074C85.2139 106.182 83.8206 108.459 83.662 108.755C82.9654 110.057 83.4755 111.095 83.543 112.461C83.6937 115.566 82.3003 118.127 78.9294 116.141C77.5692 115.339 77.5613 113.171 77.56 111.808C77.5585 109.958 77.8692 107.181 78.9585 105.634C79.3842 105.028 81.034 103.289 81.6685 103.08C83.0922 102.612 84.972 102.339 86.454 102.098C88.3469 101.79 90.2744 101.712 92.0498 100.991C93.439 100.426 94.108 99.5763 95.2767 98.7214C95.4669 98.5826 95.7697 98.5137 95.9389 98.3907C96.6264 97.8878 98.1135 95.7945 98.5947 94.9901C101.539 90.0692 100.402 85.6961 101.457 80.4694C101.593 79.792 101.389 79.4784 101.421 78.8458C101.47 77.8654 101.628 76.9775 102.211 76.1757C103.343 74.6183 104.787 73.9422 106.139 72.7487C107.191 71.821 108.463 70.5323 109.162 69.2833C110.094 67.62 110.414 64.9815 109.478 63.276C108.659 61.7834 107.947 60.0289 106.715 58.8287C104.654 56.8227 101.666 53.2303 100.541 50.5812C98.9503 46.8366 99.4063 42.5812 98.8167 38.5998C98.2219 34.5799 96.8576 30.805 94.6725 27.3832C94.2045 26.6502 92.1224 23.7259 91.5831 23.2615C91.0437 22.7971 89.9663 22.2837 89.3476 21.8206C88.3946 21.1073 87.7124 20.197 86.8267 19.4387C85.4651 18.2731 83.7506 17.4659 82.4299 16.4099C82.044 16.1017 81.7307 15.5525 81.2349 15.2972C80.6863 15.0154 80.6043 14.9823 80.0836 14.6462C78.9136 13.8933 77.1554 14.0561 75.8334 13.7054C75.3774 13.585 74.8063 13.2383 74.3555 13.0928C71.5504 12.1904 67.9878 11.5618 65.0622 11.3568C58.7407 10.4093 52.3346 10.9902 46.2127 12.762C42.9739 13.6988 38.7702 16.4325 35.8857 18.2956C33.144 20.066 30.504 22.8302 28.488 25.3905C26.2184 28.2737 25.1872 30.0931 24.1244 33.6471C23.5903 35.4348 23.2678 37.1972 22.846 39.0047C22.4799 40.5753 21.8915 41.9898 21.5625 43.6346C20.7335 47.7787 20.4045 53.6961 20.9345 57.9051C21.2756 60.6098 21.6973 64.3398 22.7562 66.8313C23.9486 69.6392 25.5243 72.0288 27.2732 74.5044C28.385 76.0792 28.997 76.7592 29.8431 78.5654C30.4776 79.9203 31.3144 81.4566 31.8855 82.7982C32.5424 84.3437 32.8994 87.3222 33.091 89.0212C33.4335 92.054 32.9298 95.1515 32.6694 98.1776C32.3204 102.235 32.0679 106.395 31.1691 110.384C30.7778 112.123 30.36 115.146 28.8808 116.317C28.4022 116.696 27.6989 116.899 27.2997 116.897C26.6929 116.893 25.3154 116.575 25.0101 116.009C24.3134 114.715 25.0404 111.793 25.5282 110.437C27.7451 104.267 29.2521 98.7176 28.4775 92.0526C28.422 91.5776 28.1351 90.7771 28.1233 90.3815C27.9937 86.3735 27.8429 83.1237 25.7768 79.5352C24.0874 76.5991 22.7998 73.9156 21.269 70.9187C20.727 69.8588 19.9232 68.7512 19.4434 67.6967C19.011 66.7453 18.6872 65.5915 18.2853 64.5992C17.5584 62.8009 16.7758 61.4075 16.4597 59.4294C15.8398 55.5591 16.3091 48.2618 17.2172 44.4074C17.4181 43.5538 17.9417 42.449 18.0898 41.675C18.3805 40.1664 18.2748 38.4358 18.6476 36.8228C20.1718 30.2413 26.3108 23.5539 31.2232 19.1133C33.5855 16.9777 36.1647 15.3621 38.9129 13.7544C44.3924 10.5496 50.9136 8.54635 57.2774 8.32397C60.4738 8.21285 63.628 8.15202 66.8442 8.49072C67.7338 8.58464 68.6501 8.94328 69.4643 9.04255C70.1253 9.12318 70.9463 9.04905 71.6165 9.12448C72.6621 9.24224 73.6655 9.37994 74.7164 9.48311C75.7674 9.58628 78.0622 10.7216 79.03 11.2973C79.7477 11.7245 79.5335 11.5764 80.3161 11.8132C82.9441 12.6084 86.2952 14.8618 88.5122 16.5225C89.3674 17.1629 90.0879 17.9462 90.8692 18.6713H90.8705Z" fill="#141413"/>
</svg>
