<svg width="22" height="21" viewBox="0 0 22 21" fill="none" xmlns="http://www.w3.org/2000/svg">
<path d="M0.75 18.75C0.749857 17.4562 1.06352 16.1816 1.66408 15.0357C2.26464 13.8897 3.13419 12.9065 4.19815 12.1703C5.26212 11.4342 6.48876 10.967 7.77288 10.809C9.05701 10.651 10.3603 10.8068 11.571 11.263M20.128 14.376C20.5264 13.9776 20.7501 13.4374 20.7501 12.874C20.7501 12.3106 20.5264 11.7704 20.128 11.372C19.7296 10.9736 19.1894 10.7499 18.626 10.7499C18.0626 10.7499 17.5224 10.9736 17.124 11.372L13.114 15.384C12.8762 15.6216 12.7022 15.9153 12.608 16.238L11.771 19.108C11.7459 19.194 11.7444 19.2853 11.7666 19.3721C11.7889 19.4589 11.8341 19.5382 11.8974 19.6016C11.9608 19.6649 12.0401 19.7101 12.1269 19.7324C12.2137 19.7546 12.305 19.7531 12.391 19.728L15.261 18.891C15.5837 18.7968 15.8774 18.6228 16.115 18.385L20.128 14.376ZM13.75 5.75C13.75 8.51142 11.5114 10.75 8.75 10.75C5.98858 10.75 3.75 8.51142 3.75 5.75C3.75 2.98858 5.98858 0.75 8.75 0.75C11.5114 0.75 13.75 2.98858 13.75 5.75Z" stroke="black" stroke-width="1.5" stroke-linecap="round" stroke-linejoin="round"/>
</svg>
